<svg xmlns="http://www.w3.org/2000/svg" viewBox="0 0 33 27"><defs><style>.a{fill:#854486;}</style></defs><title>ico-photos</title><path class="a" d="M30.12,27H2.88A2.89,2.89,0,0,1,0,24.09V2.91A2.89,2.89,0,0,1,2.88,0H30.12A2.89,2.89,0,0,1,33,2.91V24.09A2.89,2.89,0,0,1,30.12,27ZM2.88,1.59A1.32,1.32,0,0,0,1.57,2.91V24.09a1.32,1.32,0,0,0,1.31,1.32H30.12a1.32,1.32,0,0,0,1.31-1.32V2.91a1.32,1.32,0,0,0-1.31-1.32Z"/><path class="a" d="M.9,24.38a.77.77,0,0,1-.59-.29A.81.81,0,0,1,.39,23l9.9-8.75a2.84,2.84,0,0,1,4,.17l7,7.41A.8.8,0,0,1,21.37,23a.77.77,0,0,1-1.1.14.86.86,0,0,1-.18-.2l-7-7.41a1.31,1.31,0,0,0-1.82-.08L1.42,24.18A.77.77,0,0,1,.9,24.38Z"/><path class="a" d="M32,24.67a.78.78,0,0,1-.55-.23l-6.69-6.77a1.33,1.33,0,0,0-1.85,0L19.58,21a.78.78,0,0,1-1.11,0,.8.8,0,0,1,0-1.08l3.33-3.37a2.94,2.94,0,0,1,4.07,0l6.69,6.77A.79.79,0,0,1,32,24.67Z"/><path class="a" d="M20.69,5.56a2.65,2.65,0,1,1-2.62,2.65,2.63,2.63,0,0,1,2.62-2.65m0-1.59a4.24,4.24,0,1,0,4.19,4.24A4.22,4.22,0,0,0,20.69,4Z"/></svg>