<svg xmlns="http://www.w3.org/2000/svg" width="35.97" height="39" viewBox="0 0 35.97 39">
  <defs>
    <style>
      .cls-1 {
        fill: #fff;
        fill-rule: evenodd;
      }
    </style>
  </defs>
  <path id="ico-notepad" class="cls-1" d="M1204.22,105.9l-1.4-1.394a2.6,2.6,0,0,0-3.69,0l-1.42,1.412V97.815a2.605,2.605,0,0,0-2.6-2.6h-4.09V93.866a0.865,0.865,0,1,0-1.73,0v1.351h-2.8V93.866a0.87,0.87,0,0,0-1.74,0v1.351h-2.79V93.866a0.865,0.865,0,1,0-1.73,0v1.351h-2.8V93.866a0.87,0.87,0,0,0-1.74,0v1.351h-4.08a2.607,2.607,0,0,0-2.61,2.6V129.4a2.609,2.609,0,0,0,2.61,2.6h23.5a2.605,2.605,0,0,0,2.6-2.6v-13.34l6.5-6.479A2.6,2.6,0,0,0,1204.22,105.9Zm-8.24,23.5a0.868,0.868,0,0,1-.87.866h-23.5a0.862,0.862,0,0,1-.87-0.866V97.815a0.862,0.862,0,0,1,.87-0.866h4.08V98.3a0.87,0.87,0,0,0,1.74,0V96.949h2.79V98.3a0.87,0.87,0,0,0,1.74,0V96.949h2.79V98.3a0.87,0.87,0,0,0,1.74,0V96.949h2.8V98.3a0.865,0.865,0,1,0,1.73,0V96.949h4.09a0.868,0.868,0,0,1,.87.866v9.839l-8.93,8.912a0.876,0.876,0,0,0-.23.4l-1.33,5.165a0.9,0.9,0,0,0,.23.829,0.876,0.876,0,0,0,.83.228l5.18-1.321a0.816,0.816,0,0,0,.4-0.227l3.85-3.839v11.6Zm7.01-21.048-11.92,11.884-3.53.9,0.9-3.519,11.92-11.89a0.9,0.9,0,0,1,1.23,0l1.4,1.394A0.867,0.867,0,0,1,1202.99,108.354Zm-26.96-3.642h10.96a0.866,0.866,0,1,0,0-1.732h-10.96A0.866,0.866,0,1,0,1176.03,104.712Zm8.2,3.888a0.868,0.868,0,0,0-.87-0.866h-7.33a0.866,0.866,0,1,0,0,1.732h7.33A0.868,0.868,0,0,0,1184.23,108.6Zm-3.13,5.46a0.868,0.868,0,0,0-.87-0.866h-4.2a0.866,0.866,0,1,0,0,1.732h4.2A0.868,0.868,0,0,0,1181.1,114.06Z" transform="translate(-1169 -93)"/>
</svg>
