<?xml version="1.0" encoding="utf-8"?>
<!-- Generator: Adobe Illustrator 23.1.1, SVG Export Plug-In . SVG Version: 6.00 Build 0)  -->
<svg version="1.1" id="Calque_1" xmlns="http://www.w3.org/2000/svg" xmlns:xlink="http://www.w3.org/1999/xlink" x="0px" y="0px"
	 viewBox="0 0 28 30" style="enable-background:new 0 0 28 30;" xml:space="preserve">
<style type="text/css">
	.st0{fill-rule:evenodd;clip-rule:evenodd;fill:#545899;}
</style>
<path id="ico-date" class="st0" d="M28,26V4.1c0-2.2-1.7-4-3.9-4.1H3.9C1.7,0,0,1.9,0,4v21.9c0,2.2,1.7,4,3.9,4.1h20.1
	C26.3,30,28,28.2,28,26z M26.7,26c0,1.5-1.2,2.7-2.6,2.7H3.9c-1.5,0-2.6-1.2-2.6-2.7V9.8h25.4L26.7,26L26.7,26z M26.7,8.5H1.3V4
	c0-1.5,1.2-2.7,2.6-2.7h20.1c1.5,0,2.6,1.2,2.6,2.7L26.7,8.5L26.7,8.5L26.7,8.5z M9.3,15.1h1.3c0.4,0,0.7-0.3,0.6-0.7
	c0-0.3-0.3-0.6-0.6-0.6H9.3c-0.4,0-0.7,0.3-0.6,0.7C8.6,14.8,8.9,15.1,9.3,15.1z M13.4,15.1h1.3c0.4,0,0.7-0.3,0.6-0.7
	c0-0.3-0.3-0.6-0.6-0.6h-1.3c-0.4,0-0.7,0.3-0.7,0.7C12.7,14.8,13,15.1,13.4,15.1C13.4,15.1,13.4,15.1,13.4,15.1L13.4,15.1z
	 M17.4,15.1h1.3c0.4,0,0.7-0.3,0.6-0.7c0-0.3-0.3-0.6-0.6-0.6h-1.3c-0.4,0-0.7,0.3-0.7,0.7C16.8,14.8,17.1,15.1,17.4,15.1
	C17.4,15.1,17.4,15.1,17.4,15.1L17.4,15.1z M21.5,15.1h1.3c0.4,0,0.7-0.3,0.6-0.7c0-0.3-0.3-0.6-0.6-0.6h-1.3
	c-0.4,0-0.7,0.3-0.6,0.7C20.9,14.8,21.2,15.1,21.5,15.1L21.5,15.1z M5.2,19.3h1.3c0.4,0,0.7-0.3,0.6-0.7c0-0.3-0.3-0.6-0.6-0.6H5.2
	c-0.4,0-0.7,0.3-0.6,0.7c0,0,0,0,0,0C4.5,19,4.8,19.3,5.2,19.3L5.2,19.3z M9.3,19.3h1.3c0.4,0,0.7-0.3,0.6-0.7
	c0-0.3-0.3-0.6-0.6-0.6H9.3c-0.4,0-0.7,0.3-0.6,0.7c0,0,0,0,0,0C8.6,19,8.9,19.3,9.3,19.3z M13.4,19.3h1.3c0.4,0,0.7-0.3,0.6-0.7
	c0-0.3-0.3-0.6-0.6-0.6h-1.3c-0.4,0-0.7,0.3-0.6,0.7c0,0,0,0,0,0C12.7,19,13,19.3,13.4,19.3L13.4,19.3z M17.4,19.3h1.3
	c0.4,0,0.7-0.3,0.6-0.7c0-0.3-0.3-0.6-0.6-0.6h-1.3c-0.5,0-0.9,0.2-0.9,0.7S16.9,19.6,17.4,19.3L17.4,19.3z M21.5,19.3h1.3
	c0.4,0,0.7-0.3,0.6-0.7c0-0.3-0.3-0.6-0.6-0.6h-1.3c-0.4,0-0.7,0.3-0.6,0.7c0,0,0,0,0,0C20.9,19,21.1,19.3,21.5,19.3L21.5,19.3z
	 M5.2,23.5h1.3c0.4,0,0.7-0.3,0.6-0.7c0-0.3-0.3-0.6-0.6-0.6H5.2c-0.5,0-0.9,0.1-0.9,0.7C4.2,23.4,4.7,23.8,5.2,23.5L5.2,23.5z
	 M9.3,23.5h1.3c0.4,0,0.7-0.3,0.6-0.7c0-0.3-0.3-0.6-0.6-0.6H9.3c-0.4,0-0.6,0.4-0.6,0.7C8.7,23.2,8.9,23.5,9.3,23.5L9.3,23.5z
	 M13.4,23.5h1.3c0.4,0,0.7-0.3,0.6-0.7c0-0.3-0.3-0.6-0.6-0.6h-1.3c-0.4,0-0.7,0.3-0.7,0.7C12.7,23.2,13,23.5,13.4,23.5L13.4,23.5z
	 M17.4,23.5h1.3c0.4,0,0.7-0.3,0.6-0.7c0-0.3-0.3-0.6-0.6-0.6h-1.3c-0.4,0-0.7,0.3-0.7,0.7C16.8,23.2,17.1,23.5,17.4,23.5L17.4,23.5
	z M7.5,4.6H6.2c-0.4,0-0.7,0.3-0.6,0.7c0,0.3,0.3,0.6,0.6,0.6h1.3c0.4,0,0.7-0.3,0.7-0.7C8.1,4.9,7.8,4.6,7.5,4.6L7.5,4.6z
	 M21.8,4.6h-1.3c-0.4,0-0.7,0.3-0.6,0.7c0,0.3,0.3,0.6,0.6,0.6h1.3c0.4,0,0.7-0.3,0.6-0.7c0,0,0,0,0,0C22.5,4.9,22.2,4.6,21.8,4.6
	C21.9,4.6,21.8,4.6,21.8,4.6L21.8,4.6z"/>
</svg>
