<?xml version="1.0" encoding="utf-8"?>
<!-- Generator: Adobe Illustrator 23.1.1, SVG Export Plug-In . SVG Version: 6.00 Build 0)  -->
<svg version="1.1" id="Calque_1" xmlns="http://www.w3.org/2000/svg" xmlns:xlink="http://www.w3.org/1999/xlink" x="0px" y="0px"
	 viewBox="0 0 19 35" style="enable-background:new 0 0 19 35;" xml:space="preserve">
<style type="text/css">
	.st0{fill-rule:evenodd;clip-rule:evenodd;fill:#2B67A8;}
</style>
<path id="ico-mobile" class="st0" d="M16,0H3C1.3,0,0,1.3,0,3C0,3,0,3,0,3V32c0,1.6,1.3,3,2.9,3c0,0,0,0,0.1,0h13c1.6,0,3-1.3,3-3
	c0,0,0,0,0-0.1V3C19,1.4,17.7,0,16,0z M17.8,32c0,1-0.8,1.8-1.7,1.8c0,0,0,0-0.1,0H3c-1,0-1.8-0.8-1.8-1.8c0,0,0,0,0-0.1v-4.2h16.6
	L17.8,32L17.8,32z M17.8,26.5H1.2v-18h16.6V26.5L17.8,26.5z M1.2,7.3V3c0-1,0.8-1.8,1.7-1.8c0,0,0,0,0.1,0h13c1,0,1.8,0.8,1.8,1.8
	c0,0,0,0,0,0.1v4.2H1.2L1.2,7.3z M9.5,3.3c0.5,0,0.9,0.4,0.9,0.8C10.4,4.6,10,5,9.5,5C9,5,8.7,4.6,8.7,4.1c0,0,0,0,0,0
	C8.7,3.6,9,3.3,9.5,3.3L9.5,3.3z M6.9,31.1h5.1c0.3,0,0.6-0.3,0.6-0.6c0,0,0,0,0,0v-0.1c0-0.3-0.3-0.6-0.6-0.6c0,0,0,0,0,0H6.9
	c-0.3,0-0.6,0.3-0.6,0.6c0,0,0,0,0,0v0.1C6.4,30.8,6.6,31.1,6.9,31.1L6.9,31.1z"/>
</svg>
