<svg xmlns="http://www.w3.org/2000/svg" width="23" height="30" viewBox="0 0 23 30">
  <defs>
    <style>
      .cls-1 {
        fill: #e71f61;
        fill-rule: evenodd;
      }
    </style>
  </defs>
  <path id="ico-newsletter" class="cls-1" d="M1225.96,656.761h13.47v1.322h-13.47v-1.322Zm7.81,3.652h5.66v1.321h-5.66v-1.321Zm0,3.549h5.66v1.321h-5.66v-1.321Zm-6.92,1.807h3.66a1.156,1.156,0,0,0,1.14-1.169v-3.773a1.155,1.155,0,0,0-1.14-1.17h-3.66a1.153,1.153,0,0,0-1.13,1.17V664.6A1.154,1.154,0,0,0,1226.85,665.769Zm0.1-4.845h3.47V664.5h-3.47v-3.578ZM1240.33,646h-15.28a2.715,2.715,0,0,0-2.67,2.748v3.376h-0.01a2.58,2.58,0,0,0-2.37,2.748v18.379a2.714,2.714,0,0,0,2.67,2.748h17.66a2.714,2.714,0,0,0,2.67-2.748v-24.5A2.715,2.715,0,0,0,1240.33,646Zm1.39,27.251a1.407,1.407,0,0,1-1.39,1.427h-17.66a1.407,1.407,0,0,1-1.39-1.427V654.872a1.3,1.3,0,0,1,1.09-1.427h0.01v19.792a0.681,0.681,0,0,0,1.28-.316V648.748a1.407,1.407,0,0,1,1.39-1.427h15.28a1.407,1.407,0,0,1,1.39,1.427v24.5Zm-15.76-5.74h13.47v1.321h-13.47v-1.321Zm0,3.548h5.14v1.321h-5.14v-1.321Zm1.09-15.833h11.47a1.155,1.155,0,0,0,1.14-1.169v-3.773a1.156,1.156,0,0,0-1.14-1.17h-11.47a1.154,1.154,0,0,0-1.13,1.17v3.773A1.153,1.153,0,0,0,1227.05,655.226Zm0.1-4.845h11.28v3.578h-11.28v-3.578Z" transform="translate(-1220 -646)"/>
</svg>
