<svg xmlns="http://www.w3.org/2000/svg" width="36" height="30" viewBox="0 0 36 30">
  <defs>
    <style>
      .cls-1 {
        fill: #854486;
        fill-rule: evenodd;
      }
    </style>
  </defs>
  <path id="ico-map" class="cls-1" d="M784.54,648.188a0.977,0.977,0,0,0-.962.015l-7.826,4.127a1.378,1.378,0,0,0-.206-0.143l-7.784-4.049A1.068,1.068,0,0,0,767.24,648a0.844,0.844,0,0,1-.481,0,1.046,1.046,0,0,0-.5.133l-7.817,4.067a1.364,1.364,0,0,0-.192.132l-7.809-4.119a0.977,0.977,0,0,0-.976-0.021,0.941,0.941,0,0,0-.46.845v23.536a1.577,1.577,0,0,0,.773,1.3,0.231,0.231,0,0,0,.035.018l8.155,3.927a0.7,0.7,0,0,0,.15.052,0.9,0.9,0,0,0,.467.131,1.034,1.034,0,0,0,.5-0.133L766.9,673.8c0.034-.019.066-0.042,0.1-0.065a1.235,1.235,0,0,0,.114.074l7.785,4.051a1.069,1.069,0,0,0,.52.14,0.9,0.9,0,0,0,.467-0.131,0.633,0.633,0,0,0,.148-0.051l8.156-3.927,0.036-.018a1.578,1.578,0,0,0,.772-1.3V649.033A0.951,0.951,0,0,0,784.54,648.188ZM757.664,676.2l-7.23-3.482a0.313,0.313,0,0,1-.086-0.146v-22.9l7.316,3.859V676.2Zm8.662-3.7a0.367,0.367,0,0,1-.072.143l-7.242,3.769V653.5a0.364,0.364,0,0,1,.072-0.145l7.242-3.768v22.9Zm8.662,3.912-7.222-3.757a0.307,0.307,0,0,1-.092-0.151V649.59l7.222,3.756a0.317,0.317,0,0,1,.092.151v22.908Zm8.664-3.841a0.319,0.319,0,0,1-.083.15l-7.233,3.483V653.526l7.316-3.86v22.9Z" transform="translate(-749 -648)"/>
</svg>
