<svg xmlns="http://www.w3.org/2000/svg" width="25" height="35" viewBox="0 0 25 35">
  <defs>
    <style>
      .cls-1 {
        fill: #2b67a8;
        fill-rule: evenodd;
      }
    </style>
  </defs>
  <path id="ico-cal" class="cls-1" d="M316.157,644H296.842A2.838,2.838,0,0,0,294,646.825v29.35A2.838,2.838,0,0,0,296.842,679h19.315A2.838,2.838,0,0,0,319,676.175v-29.35A2.838,2.838,0,0,0,316.157,644Zm1.706,32.175a1.7,1.7,0,0,1-1.706,1.7H296.842a1.7,1.7,0,0,1-1.7-1.7v-29.35a1.7,1.7,0,0,1,1.7-1.7h19.315a1.7,1.7,0,0,1,1.706,1.7v29.35Zm-20.452-20.883h18.178v-7.9H297.411v7.9Zm1.137-6.779h15.9v5.642h-15.9v-5.642Zm3.411,9.032h-4.541v4.513h4.541v-4.513Zm-1.137,3.39h-2.274v-2.26h2.274v2.26Zm3.4,1.13h4.541v-4.513h-4.541v4.513h0Zm1.137-3.39h2.274v2.26h-2.274v-2.26h0Zm5.678,3.39h4.541v-4.513h-4.541v4.513Zm1.137-3.39h2.274v2.26h-2.274v-2.26Zm-10.219,5.65h-4.541v4.512h4.541v-4.512Zm-1.137,3.383h-2.274v-2.26h2.274v2.26Zm3.4,1.129h4.541v-4.512h-4.541v4.512h0Zm1.137-3.382h2.274v2.259h-2.274v-2.259h0Zm5.678,10.155h4.541V664.325h-4.541V675.61Zm1.137-10.155h2.274v9.032h-2.274v-9.032ZM297.411,675.61h11.363V671.1H297.411v4.513Zm1.137-3.383h9.089v2.26h-9.089v-2.26Zm7.383-21.454h1.137v1.13h-1.137v-1.13Zm2.274,0h1.137v1.13h-1.137v-1.13Zm-4.548,0h1.137v1.13h-1.137v-1.13Z" transform="translate(-294 -644)"/>
</svg>
