<svg xmlns="http://www.w3.org/2000/svg" width="37" height="37" viewBox="0 0 37 37">
  <defs>
    <style>
      .cls-1 {
        fill: #545899;
        fill-rule: evenodd;
      }
    </style>
  </defs>
  <path id="ico-exhibit" class="cls-1" d="M532.5,654.134a5.567,5.567,0,1,1,5.634-5.567A5.627,5.627,0,0,1,532.5,654.134Zm0-9.975a4.408,4.408,0,1,0,4.46,4.408A4.433,4.433,0,0,0,532.5,644.159ZM536.961,680h-1.173v-8.776h0.586a1.908,1.908,0,0,0,1.917-1.894V658.116a1.909,1.909,0,0,0-1.917-1.895h-7.746a1.91,1.91,0,0,0-1.917,1.895v11.211a1.909,1.909,0,0,0,1.917,1.894h0.587v8.738h-1.174v-7.616a3.074,3.074,0,0,1-2.5-2.977V658.154a3.054,3.054,0,0,1,3.09-3.054h7.707a3.054,3.054,0,0,1,3.091,3.054v11.212a3.075,3.075,0,0,1-2.5,2.977V680h0.039Zm-17.6-21.379a4.33,4.33,0,1,1,4.381-4.33A4.349,4.349,0,0,1,519.357,658.618Zm0-7.5a3.17,3.17,0,1,0,3.207,3.17A3.2,3.2,0,0,0,519.357,651.118Zm3.52,26.83H521.7v-6.727h0.587a1.294,1.294,0,0,0,1.291-1.275v-8.467a1.3,1.3,0,0,0-1.291-1.276h-5.829a1.3,1.3,0,0,0-1.292,1.276v8.467a1.294,1.294,0,0,0,1.292,1.275h0.586v6.727h-1.173V672.3A2.444,2.444,0,0,1,514,669.946v-8.467a2.44,2.44,0,0,1,2.465-2.436h5.79a2.44,2.44,0,0,1,2.464,2.436v8.467a2.419,2.419,0,0,1-1.878,2.358v5.644h0.039Zm22.769-19.136a4.33,4.33,0,1,1,4.382-4.33A4.349,4.349,0,0,1,545.646,658.812Zm0-7.539a3.17,3.17,0,1,0,3.208,3.17A3.2,3.2,0,0,0,545.646,651.273Zm3.482,26.868h-1.174v-6.726h0.587a1.3,1.3,0,0,0,1.291-1.276v-8.467a1.3,1.3,0,0,0-1.291-1.275h-5.829a1.3,1.3,0,0,0-1.291,1.275v8.467a1.3,1.3,0,0,0,1.291,1.276H543.3v6.726h-1.174V672.5a2.444,2.444,0,0,1-1.878-2.358v-8.467a2.44,2.44,0,0,1,2.465-2.435h5.829a2.44,2.44,0,0,1,2.465,2.435v8.467a2.42,2.42,0,0,1-1.878,2.358v5.644Z" transform="translate(-514 -643)"/>
</svg>
