<svg xmlns="http://www.w3.org/2000/svg" width="37" height="37" viewBox="0 0 37 37">
  <metadata><?xpacket begin="﻿" id="W5M0MpCehiHzreSzNTczkc9d"?>
<x:xmpmeta xmlns:x="adobe:ns:meta/" x:xmptk="Adobe XMP Core 5.6-c138 79.159824, 2016/09/14-01:09:01        ">
   <rdf:RDF xmlns:rdf="http://www.w3.org/1999/02/22-rdf-syntax-ns#">
      <rdf:Description rdf:about=""/>
   </rdf:RDF>
</x:xmpmeta>
                                                                                                    
                                                                                                    
                                                                                                    
                                                                                                    
                                                                                                    
                                                                                                    
                                                                                                    
                                                                                                    
                                                                                                    
                                                                                                    
                                                                                                    
                                                                                                    
                                                                                                    
                                                                                                    
                                                                                                    
                                                                                                    
                                                                                                    
                                                                                                    
                                                                                                    
                                                                                                    
                           
<?xpacket end="w"?></metadata>
<defs>
    <style>
      .cls-1 {
        fill: #bb3072;
        fill-rule: evenodd;
      }
    </style>
  </defs>
  <path id="ico-exhibitors" class="cls-1" d="M866.5,664.134a5.568,5.568,0,1,1,5.634-5.567A5.627,5.627,0,0,1,866.5,664.134Zm0-9.975a4.408,4.408,0,1,0,4.46,4.408A4.433,4.433,0,0,0,866.5,654.159ZM870.961,690h-1.173v-8.776h0.586a1.908,1.908,0,0,0,1.917-1.894V668.116a1.909,1.909,0,0,0-1.917-1.895h-7.746a1.91,1.91,0,0,0-1.917,1.895v11.211a1.909,1.909,0,0,0,1.917,1.894h0.587v8.737h-1.174v-7.616a3.072,3.072,0,0,1-2.5-2.976V668.154a3.054,3.054,0,0,1,3.09-3.054h7.707a3.054,3.054,0,0,1,3.091,3.054v11.212a3.073,3.073,0,0,1-2.5,2.976V690h0.039Zm-17.605-21.379a4.33,4.33,0,1,1,4.382-4.33A4.349,4.349,0,0,1,853.356,668.618Zm0-7.5a3.17,3.17,0,1,0,3.208,3.17A3.2,3.2,0,0,0,853.356,661.118Zm3.521,26.83H855.7v-6.727h0.587a1.294,1.294,0,0,0,1.291-1.275v-8.467a1.3,1.3,0,0,0-1.291-1.276h-5.829a1.3,1.3,0,0,0-1.292,1.276v8.467a1.294,1.294,0,0,0,1.292,1.275h0.586v6.727h-1.173V682.3A2.444,2.444,0,0,1,848,679.946v-8.467a2.44,2.44,0,0,1,2.465-2.436h5.789a2.44,2.44,0,0,1,2.465,2.436v8.467a2.42,2.42,0,0,1-1.878,2.358v5.644h0.039Zm22.769-19.136a4.33,4.33,0,1,1,4.382-4.33A4.349,4.349,0,0,1,879.646,668.812Zm0-7.539a3.17,3.17,0,1,0,3.208,3.17A3.2,3.2,0,0,0,879.646,661.273Zm3.482,26.869h-1.174v-6.727h0.587a1.3,1.3,0,0,0,1.291-1.276v-8.467a1.3,1.3,0,0,0-1.291-1.275h-5.829a1.3,1.3,0,0,0-1.291,1.275v8.467a1.3,1.3,0,0,0,1.291,1.276H877.3v6.727h-1.174V682.5a2.444,2.444,0,0,1-1.878-2.358v-8.467a2.44,2.44,0,0,1,2.465-2.435h5.829a2.44,2.44,0,0,1,2.465,2.435v8.467a2.42,2.42,0,0,1-1.878,2.358v5.645Z" transform="translate(-848 -653)"/>
</svg>
