<svg id="Layer_1" data-name="Layer 1" xmlns="http://www.w3.org/2000/svg" viewBox="0 0 37 37"><title>ico-direction</title><path id="ico-direction" d="M20.25,37H16.75a.57.57,0,0,1-.57-.57V24.35h1.14V35.86h2.37V24.35h1.14V36.43A.57.57,0,0,1,20.25,37Zm.57-34.32H19.68V1.13H17.32V2.68H16.18V.57A.57.57,0,0,1,16.75,0h3.51a.57.57,0,0,1,.57.57Zm12,8H7.38a.57.57,0,0,1-.57-.57h0V2.94a.57.57,0,0,1,.57-.57H32.86a.57.57,0,0,1,.4.17l3.57,3.57a.57.57,0,0,1,0,.8l-3.57,3.57a.57.57,0,0,1-.4.17ZM8,9.51H32.62l3-3-3-3H8ZM32.86,24.92H7.38a.57.57,0,0,1-.57-.57V17.22a.57.57,0,0,1,.57-.57H32.86a.57.57,0,0,1,.4.17l3.57,3.57a.57.57,0,0,1,0,.8l-3.57,3.57a.57.57,0,0,1-.4.17ZM8,23.78H32.62l3-3-3-3H8Zm21.66-6H4.14a.57.57,0,0,1-.4-.17L.17,14a.57.57,0,0,1,0-.8L3.74,9.68a.57.57,0,0,1,.4-.17H29.62a.57.57,0,0,1,.57.57v7.14a.57.57,0,0,1-.57.57ZM4.38,16.65H29v-6H4.38l-3,3Z" style="fill:#545899"/></svg>