<svg xmlns="http://www.w3.org/2000/svg" width="28" height="30" viewBox="0 0 28 30">
  <metadata><?xpacket begin="﻿" id="W5M0MpCehiHzreSzNTczkc9d"?>
<x:xmpmeta xmlns:x="adobe:ns:meta/" x:xmptk="Adobe XMP Core 5.6-c138 79.159824, 2016/09/14-01:09:01        ">
   <rdf:RDF xmlns:rdf="http://www.w3.org/1999/02/22-rdf-syntax-ns#">
      <rdf:Description rdf:about=""/>
   </rdf:RDF>
</x:xmpmeta>
                                                                                                    
                                                                                                    
                                                                                                    
                                                                                                    
                                                                                                    
                                                                                                    
                                                                                                    
                                                                                                    
                                                                                                    
                                                                                                    
                                                                                                    
                                                                                                    
                                                                                                    
                                                                                                    
                                                                                                    
                                                                                                    
                                                                                                    
                                                                                                    
                                                                                                    
                                                                                                    
                           
<?xpacket end="w"?></metadata>
<defs>
    <style>
      .cls-1 {
        fill: #2b67a8;
        fill-rule: evenodd;
      }
    </style>
  </defs>
  <path id="ico-date" class="cls-1" d="M187,683.951v-21.9A3.991,3.991,0,0,0,183.087,658H162.913A3.991,3.991,0,0,0,159,662.046v21.9A3.991,3.991,0,0,0,162.913,688h20.138A4,4,0,0,0,187,683.951Zm-1.292,0a2.682,2.682,0,0,1-2.621,2.71H162.913a2.682,2.682,0,0,1-2.621-2.71V667.838h25.38l0.036,16.113h0Zm0-17.487H160.292v-4.418a2.682,2.682,0,0,1,2.621-2.71h20.138a2.682,2.682,0,0,1,2.621,2.71l0.036,4.418h0Zm-17.446,6.609h1.292a0.669,0.669,0,0,0,0-1.337h-1.292A0.669,0.669,0,0,0,168.262,673.073Zm4.092,0h1.292a0.669,0.669,0,0,0,0-1.337h-1.292A0.669,0.669,0,0,0,172.354,673.073Zm4.092,0h1.292a0.669,0.669,0,0,0,0-1.337h-1.292A0.669,0.669,0,0,0,176.446,673.073Zm4.057,0H181.8a0.669,0.669,0,0,0,0-1.337H180.5A0.669,0.669,0,0,0,180.5,673.073Zm-16.334,4.232h1.293a0.669,0.669,0,0,0,0-1.337h-1.293a0.655,0.655,0,0,0-.646.669A0.679,0.679,0,0,0,164.169,677.305Zm4.093,0h1.292a0.669,0.669,0,0,0,0-1.337h-1.292a0.656,0.656,0,0,0-.647.669A0.68,0.68,0,0,0,168.262,677.305Zm4.092,0h1.292a0.669,0.669,0,0,0,0-1.337h-1.292a0.655,0.655,0,0,0-.646.669A0.679,0.679,0,0,0,172.354,677.305Zm4.092,0h1.292a0.669,0.669,0,0,0,0-1.337h-1.292A0.669,0.669,0,0,0,176.446,677.305Zm4.057,0H181.8a0.669,0.669,0,0,0,0-1.337H180.5a0.656,0.656,0,0,0-.647.669A0.68,0.68,0,0,0,180.5,677.305Zm-16.334,4.2h1.293a0.669,0.669,0,0,0,0-1.337h-1.293A0.669,0.669,0,0,0,164.169,681.5Zm4.093,0h1.292a0.669,0.669,0,0,0,0-1.337h-1.292A0.669,0.669,0,0,0,168.262,681.5Zm4.092,0h1.292a0.669,0.669,0,0,0,0-1.337h-1.292A0.669,0.669,0,0,0,172.354,681.5Zm4.092,0h1.292a0.669,0.669,0,0,0,0-1.337h-1.292A0.669,0.669,0,0,0,176.446,681.5Zm-9.979-18.9h-1.293a0.669,0.669,0,0,0,0,1.337h1.293A0.669,0.669,0,0,0,166.467,662.6Zm14.359,0h-1.293a0.669,0.669,0,0,0,0,1.337h1.293a0.655,0.655,0,0,0,.646-0.669A0.633,0.633,0,0,0,180.826,662.6Z" transform="translate(-159 -658)"/>
</svg>
