<svg xmlns="http://www.w3.org/2000/svg" width="37" height="35" viewBox="0 0 37 35">
  <defs>
    <style>
      .cls-1 {
        fill: #bb3072;
        fill-rule: evenodd;
      }
    </style>
  </defs>
  <path id="ico-lamp" class="cls-1" d="M998.434,644a0.78,0.78,0,0,0-.686.8v3.922a0.77,0.77,0,1,0,1.54.022V644.8a0.778,0.778,0,0,0-.753-0.8A0.684,0.684,0,0,0,998.434,644Zm-14.182,4.314a0.778,0.778,0,0,0-.75.8,0.79,0.79,0,0,0,.305.605l3.464,2.745a0.76,0.76,0,0,0,1.088-.054,0.794,0.794,0,0,0-.053-1.108,0.689,0.689,0,0,0-.1-0.075l-3.465-2.746A0.759,0.759,0,0,0,984.252,648.317Zm28.438,0a0.745,0.745,0,0,0-.4.171l-3.46,2.746a0.793,0.793,0,0,0-.23,1.085,0.767,0.767,0,0,0,1.07.228,1.1,1.1,0,0,0,.1-0.076l3.46-2.745a0.8,0.8,0,0,0,.16-1.1A0.761,0.761,0,0,0,1012.69,648.317Zm-14.942,3.934a9.711,9.711,0,0,0-9.623,9.805,10.339,10.339,0,0,0,6.159,9.535V675a3.134,3.134,0,0,0,2.7,3.113v0.1c0,0.638.528,0.784,1.154,0.784h0.77c0.627,0,1.157-.146,1.157-0.784v-0.1a3.131,3.131,0,0,0,2.69-3.113v-3.407a10.342,10.342,0,0,0,6.16-9.535,9.707,9.707,0,0,0-9.622-9.805h-1.54Zm0,1.569h1.54a8.124,8.124,0,0,1,8.082,8.236,8.793,8.793,0,0,1-5.62,8.272,0.783,0.783,0,0,0-.54.748v1.177a0.937,0.937,0,0,1-.37.845,1.924,1.924,0,0,1-1.167.331h-2.309a1.924,1.924,0,0,1-1.167-.331,0.927,0.927,0,0,1-.373-0.845v-1.177a0.784,0.784,0,0,0-.541-0.748,8.8,8.8,0,0,1-5.618-8.272A8.125,8.125,0,0,1,997.748,653.82Zm-17.008,7.451a0.785,0.785,0,0,0,.072,1.569h3.849a0.785,0.785,0,0,0,.022-1.569H980.74Zm31.56,0a0.786,0.786,0,0,0,.08,1.569h3.84a0.785,0.785,0,0,0,.03-1.569h-3.95Zm-16.476,13.408a3.636,3.636,0,0,0,1.54.319h2.309a3.629,3.629,0,0,0,1.537-.319V675a1.532,1.532,0,0,1-1.537,1.569h-2.309a1.534,1.534,0,0,1-1.54-1.569v-0.319Z" transform="translate(-980 -644)"/>
</svg>
